<?xml version="1.0" encoding="utf-8"?>
<!-- Svg Vector Icons : http://www.onlinewebfonts.com/icon -->
<!DOCTYPE svg PUBLIC "-//W3C//DTD SVG 1.1//EN" "http://www.w3.org/Graphics/SVG/1.1/DTD/svg11.dtd">
<svg version="1.1" xmlns="http://www.w3.org/2000/svg" xmlns:xlink="http://www.w3.org/1999/xlink" x="0px" y="0px" viewBox="0 0 256 256" enable-background="new 0 0 256 256" xml:space="preserve">
<metadata> Svg Vector Icons : http://www.onlinewebfonts.com/icon </metadata>
<g><g><g><path fill="#ffffff" d="M118.3,10.4c-2.2,0.2-6.5,1-9.4,1.7c-30.4,6.8-55,29.6-63.9,59.4C42,81,41.6,84.7,41.6,97.9c0,12.2,0.5,16.9,2.7,26.9c8.8,40.4,37,83,77.8,117.3c5.9,5,5.5,4.9,9.5,1.6c30.8-24.9,58.4-60.5,71.5-92.4c10.3-25.2,13.9-51.7,9.6-72.2c-6.7-32.2-31.4-58.2-63-66.4C140.5,10.4,127.2,9.4,118.3,10.4z M138.1,29.1c12.8,2.2,25,8.3,34.5,17.2c8.2,7.6,14.3,17.1,17.9,27.4c2.2,6.4,3.2,11.9,3.5,19.3c0.8,19.5-6.1,37-20.1,50.8c-9.4,9.3-21.7,15.8-35.3,18.4c-5.9,1.2-18.2,1.2-24.1,0c-27.8-5.5-48.3-25.7-54.4-53.7c-1.2-5.6-1.2-20.2,0-25.9c3-13.7,8.9-24.6,18.7-34.5c11-11,23.1-17.1,39.2-19.5C121.7,28.1,134.1,28.3,138.1,29.1z"/><path fill="#000000" d="M151.3,64.5c-6.5,1.1-13.6,5.7-17.2,11.1c-1,1.6-12.7,6.7-20.4,9.2c-5.6,1.7-5.6,1.7-9.9,1.2c-13.2-1.7-25,5.8-28.7,18.2c-4.1,13.5,4.3,28.5,17.9,32c3.7,0.9,10.2,0.9,13.5,0c6.8-2,12.7-6.7,15.7-12.4c2.3-4.4,2.8-6.3,3.1-11.1l0.3-4.2l2.3-1.1c1.2-0.7,3.3-1.3,4.6-1.4c2.3-0.2,2.4-0.2,5.4,2.6c3.3,3.2,8.3,5.8,12.4,6.7c15.9,3.3,30.8-8.9,30.9-25.2c0.1-11.8-7.9-22-19.7-25.1C158.8,64.2,154,64,151.3,64.5z M162,72.5c4.4,2.1,4.6,9,0.2,11.2c-5.6,2.9-11.8-3.3-8.5-8.6c1.1-1.8,3.5-3.4,5.3-3.4C159.7,71.7,161.1,72.1,162,72.5z M147.6,82.7c3.5,2.4,4.1,6.5,1.2,9.6c-2.7,2.9-7.2,2.6-9.7-0.6c-1.2-1.5-1.3-4.8-0.3-6.8C140.4,81.8,144.6,80.7,147.6,82.7z M171.2,86c3.7,2.5,4.1,6.7,0.9,9.9c-1.5,1.6-2.1,1.8-3.9,1.8c-3.8,0-6.5-2.6-6.5-6.4C161.7,86.3,167.1,83.3,171.2,86z M97.3,95.9c1.4,1.6,4,8.8,3.6,10c-0.8,2.5-3.6,3.5-5.5,2c-0.8-0.6-4.1-8.6-4.1-10.1c0-0.4,0.5-1.2,1.2-1.8C94,94.5,96.1,94.5,97.3,95.9z M156.1,95.5c5.7,2.9,3.4,12-3,12c-3.4,0-6.5-3.1-6.5-6.4C146.6,96.6,151.9,93.4,156.1,95.5z M133.1,99.7c0.9,2.5-1.6,4.2-3.5,2.4c-1.8-1.7-0.8-4.1,1.7-3.9C132.3,98.3,132.7,98.7,133.1,99.7z M126.3,101.5c1.2,2.1-0.2,4.1-2.5,3.5c-1.5-0.3-2.1-2.1-1.3-3.5C123.2,100.2,125.6,100.1,126.3,101.5z M115.1,103.4c1.1,0.5,2.2,2.2,2.2,3.5c0,1.4-2.3,3-6.3,4.5c-3.4,1.2-4.3,1.4-5.2,1c-2.5-1.1-3.2-4.3-1.3-5.9c0.8-0.7,8-3.6,9-3.6C113.7,102.9,114.5,103.1,115.1,103.4z M95.1,111.1c2.4,1.2,2.6,3.8,0.6,5.5c-0.7,0.6-3.2,1.7-5.4,2.5l-4.1,1.4l-1.3-0.9c-1.5-1.1-2-3.7-1-5c0.5-0.7,8.2-4,9.5-4.1C93.6,110.4,94.4,110.7,95.1,111.1z M104.7,115.7c0.9,0.7,4.1,8.4,4.1,9.9c0,1.3-2.1,3.2-3.5,3.2c-1.9,0-3.4-1.8-5-6.1c-1.6-4.1-1.6-5-0.1-6.8C101.1,115,103.5,114.9,104.7,115.7z"/><path fill="#000000" d="M118.1,76.9c-5.3,2-6.4,3.1-4.6,4.9l1,1l4.9-1.8c2.7-0.9,5.1-2,5.5-2.2c1.3-1,0.3-3.7-1.3-3.7C123.1,75.1,120.6,75.9,118.1,76.9z"/></g></g></g>
</svg>